<?xml version="1.0" encoding="UTF-8"?>
<!DOCTYPE svg PUBLIC "-//W3C//DTD SVG 1.1//EN" "http://www.w3.org/Graphics/SVG/1.1/DTD/svg11.dtd">
<!-- Creator: CorelDRAW X6 -->
<svg xmlns="http://www.w3.org/2000/svg" xml:space="preserve" width="100%" height="100%" version="1.1" style="shape-rendering:geometricPrecision; text-rendering:geometricPrecision; image-rendering:optimizeQuality; fill-rule:evenodd; clip-rule:evenodd"
viewBox="0 0 500 500"
 xmlns:xlink="http://www.w3.org/1999/xlink">
 <defs>
  <style type="text/css">
   <![CDATA[
    .fil1 {fill:#008EED}
    .fil0 {fill:#17A2FF}
   ]]>
  </style>
 </defs>
 <g id="Layer_x0020_1">
  <metadata id="CorelCorpID_0Corel-Layer"/>
  <path class="fil0" d="M275 471c0,5 4,10 11,10 103,0 184,-89 184,-191 0,-103 -83,-186 -186,-186l-77 0 0 -60c0,-26 -30,-33 -51,-13l-113 114c-9,8 -13,17 -13,25l259 0c82,0 149,67 149,149 0,82 -65,152 -147,152 -2,0 -8,0 -16,0z"/>
  <path class="fil1" d="M286 461c-7,0 -11,5 -11,10 8,0 14,0 16,0 82,0 147,-70 147,-152 0,-82 -67,-149 -149,-149l-259 0 0 0c0,8 4,17 13,25l113 114c21,20 51,13 51,-13l0 -60 77 0c64,0 115,52 115,116 0,63 -49,109 -113,109z"/>
 </g>
</svg>
